PathFileType	4	(X/Y/Z)	C:\Users\Basilio\Documents\Thesis Gigler\squatting_fais\c3dfiles\076\SJ_pre4\markers_experimental.trc
DataRate	CameraRate	NumFrames	NumMarkers	Units	OrigDataRate	OrigDataStartFrame	OrigNumFrames
200.000000	200.000000	4	61	mm	200.000000	0	1864
Frame#	Time	FHD			LBHD			RBHD			C7			T10			CLAV			LSHO			LUUPA			LMUPA			LDUPA			LLEP			LMEP			LRAD			LUL			LRFIN			RSHO			RUPA1			RMUPA			RDUPA			RLEP			RMEP			RRAD			RUL			RUFIN			LASI			RASI			USACR			LSACR			RSACR			LTHI1			LTHI2			LTHI3			LTHI4			LLFC			LMFC			LTIB1			LTIB2			LTIB3			LTIB4			LLMAL			LMMAL			LHEE			LMT1			LMT2			LMT5			RTHI			RTHI2			RTHI3			RTHI4			RLFC			RMFC			RTIB1			RTIB2			RTIB3			RTIB4			RLMAL			RMMAL			RHEE			RMT1			RMT2			RMT5			
		X1	Y1	Z1	X2	Y2	Z2	X3	Y3	Z3	X4	Y4	Z4	X5	Y5	Z5	X6	Y6	Z6	X7	Y7	Z7	X8	Y8	Z8	X9	Y9	Z9	X10	Y10	Z10	X11	Y11	Z11	X12	Y12	Z12	X13	Y13	Z13	X14	Y14	Z14	X15	Y15	Z15	X16	Y16	Z16	X17	Y17	Z17	X18	Y18	Z18	X19	Y19	Z19	X20	Y20	Z20	X21	Y21	Z21	X22	Y22	Z22	X23	Y23	Z23	X24	Y24	Z24	X25	Y25	Z25	X26	Y26	Z26	X27	Y27	Z27	X28	Y28	Z28	X29	Y29	Z29	X30	Y30	Z30	X31	Y31	Z31	X32	Y32	Z32	X33	Y33	Z33	X34	Y34	Z34	X35	Y35	Z35	X36	Y36	Z36	X37	Y37	Z37	X38	Y38	Z38	X39	Y39	Z39	X40	Y40	Z40	X41	Y41	Z41	X42	Y42	Z42	X43	Y43	Z43	X44	Y44	Z44	X45	Y45	Z45	X46	Y46	Z46	X47	Y47	Z47	X48	Y48	Z48	X49	Y49	Z49	X50	Y50	Z50	X51	Y51	Z51	X52	Y52	Z52	X53	Y53	Z53	X54	Y54	Z54	X55	Y55	Z55	X56	Y56	Z56	X57	Y57	Z57	X58	Y58	Z58	X59	Y59	Z59	X60	Y60	Z60	X61	Y61	Z61	

1	0	-62.08038711547853	1480.01416015625	-984.6177368164065	-212.0126953125001	1524.330688476563	-1082.490844726563	-194.3700408935547	1532.457763671875	-930.548278808594	-334.7069702148438	1435.4326171875	-996.4141235351565	-411.7772827148439	1109.3876953125	-991.4170532226565	-226.1759490966797	1322.250854492188	-994.942321777344	-294.6625366210938	1360.94677734375	-1165.390014648438	-318.9562377929688	1205.182006835938	-1291.518798828125	-307.6485900878907	1160.623291015625	-1271.388427734375	-331.0920410156251	1146.056884765625	-1325.46630859375	-345.2506103515626	1098.041381835938	-1353.883056640625	-427.1404724121095	1093.1162109375	-1320.09716796875	-315.0685729980469	938.5954589843752	-1163.046752929688	-362.8499755859376	922.6580810546877	-1187.082153320313	-319.8326110839844	889.058044433594	-1221.672119140625	-289.2017822265626	1360.639404296875	-830.5668945312502	-354.9250793457032	1228.514038085938	-692.3789672851564	-325.6541137695313	1187.656005859375	-691.0601806640626	-369.6643371582032	1170.898193359375	-653.0144653320314	-369.7962951660157	1101.93017578125	-629.6054077148439	-438.9754028320314	1090.501098632813	-684.1135864257814	-350.6906738281251	927.8873291015627	-796.8629150390627	-296.4733276367188	942.9552001953127	-810.2287597656252	-306.5374145507813	900.853942871094	-753.1543579101564	-264.5709533691407	910.5202636718752	-1098.2119140625	-253.6516571044922	911.664733886719	-888.0982055664065	-419.1616210937501	1000.919494628906	-986.5937500000002	-430.1922302246095	973.5413208007815	-1015.220764160156	-426.2444458007814	971.259460449219	-958.3875732421877	-355.4342956542969	768.7410278320315	-1160.360595703125	-332.5331115722657	686.5639038085939	-1160.061889648438	-283.8930053710938	684.3181762695314	-1149.030517578125	-366.4463195800782	637.5574340820314	-1146.281127929688	-374.6649780273438	475.8387145996095	-1123.861572265625	-346.8065185546876	466.3489074707032	-1008.225280761719	-342.0160217285157	330.2077636718751	-1055.5126953125	-360.4623107910157	277.5765075683594	-1124.994140625	-333.2000732421876	280.7088012695313	-1086.664306640625	-345.4060668945313	202.897933959961	-1055.873291015625	-394.7443237304689	77.92541503906251	-1113.106567382813	-371.4489440917969	88.95989990234376	-1031.439697265625	-449.3984680175782	42.32921218872071	-1069.693603515625	-237.7476196289063	53.60226058959962	-1050.986694335938	-232.5025482177735	53.05224609375001	-1089.497192382813	-250.2187957763672	42.43685150146485	-1140.3876953125	-340.4940795898438	685.7785034179689	-789.1062622070315	-301.9165039062501	632.1088867187501	-773.4368896484377	-267.5955810546876	633.9730834960939	-780.308532714844	-326.3584594726563	553.3421020507814	-778.171081542969	-320.5028991699219	493.5111694335939	-771.715026855469	-291.2625427246094	470.0296020507814	-884.2069091796877	-288.3417663574219	354.8618164062501	-770.2575683593752	-366.9277648925782	287.9148559570313	-733.7144165039064	-321.7079467773438	278.6142272949219	-743.6337890625001	-313.5095825195313	226.9223175048829	-769.376403808594	-382.5823059082032	88.50232696533205	-719.0754394531251	-366.9806823730469	101.1387100219727	-802.5906982421877	-442.6475830078126	62.15273284912111	-760.6392211914064	-239.7858428955079	54.51926422119142	-800.7681274414065	-231.0581665039063	54.23854446411134	-756.2057495117189	-252.0044860839844	32.6668815612793	-700.8150634765626	
2	0.005	-62.26273345947267	1480.012329101563	-984.9299316406252	-212.1801300048829	1524.322875976563	-1082.820434570313	-194.5499267578126	1532.45703125	-930.9236450195315	-334.9365844726563	1435.476196289063	-996.7986450195315	-411.9112243652345	1109.388793945313	-991.9124145507815	-226.379379272461	1322.218505859375	-995.3126220703127	-294.7223205566407	1360.977294921875	-1165.80810546875	-318.7672119140626	1205.224365234375	-1292.00439453125	-307.5521545410157	1160.655029296875	-1271.77197265625	-330.8311767578126	1146.062622070313	-1325.86962890625	-345.8348388671876	1098.22021484375	-1354.793823242188	-426.9517822265626	1093.4111328125	-1320.31005859375	-314.8436889648438	938.5504150390627	-1163.551879882813	-362.6002807617188	922.590515136719	-1187.607421875	-319.5775146484376	889.0261230468752	-1222.217407226563	-289.5093994140626	1360.622680664063	-830.9146118164065	-355.4244689941407	1228.509033203125	-692.8483276367189	-326.1832580566407	1187.614135742188	-691.4947509765626	-370.2256469726563	1170.84521484375	-653.5835571289064	-370.3279113769532	1101.905517578125	-630.1298828125001	-439.495330810547	1090.4296875	-684.7416381835939	-351.0117492675782	927.8250122070315	-797.4208984375002	-296.7215270996094	942.9205322265627	-810.7154541015627	-306.9118652343751	900.7976074218752	-753.6763916015626	-264.3775939941407	910.500671386719	-1098.614379882813	-253.6775665283204	911.7085571289065	-888.4160156250002	-419.195281982422	1000.893249511719	-987.1953735351565	-430.1445922851564	973.4568481445315	-1015.842163085938	-426.3517150878907	971.2398681640627	-958.9675903320315	-355.3655090332032	768.6985473632815	-1160.912475585938	-332.4681091308594	686.4830322265626	-1160.505004882813	-283.7973022460938	684.2213745117189	-1149.455932617188	-366.3683471679688	637.5704956054689	-1146.707885742188	-374.7480773925782	475.8488159179689	-1124.147094726563	-346.9895935058594	466.3306884765626	-1008.516906738281	-342.3197937011719	330.3511047363282	-1055.772583007813	-360.5553588867188	277.5507507324219	-1125.079223632813	-333.2667236328126	280.6920471191407	-1086.848999023438	-346.0866088867188	202.7074737548829	-1056.256225585938	-394.7059020996095	77.87818908691408	-1113.156494140625	-371.4613952636719	88.93064117431642	-1031.516845703125	-449.4205017089845	42.33309555053712	-1069.692749023438	-237.7484436035157	53.57515335083009	-1050.98583984375	-232.5320281982422	53.03842926025392	-1089.512573242188	-250.2187652587891	42.4367790222168	-1140.3876953125	-340.6506042480469	685.7767944335939	-789.5493164062502	-302.2219238281251	632.1245727539064	-773.8914184570315	-267.8649291992188	633.9702758789064	-780.767761230469	-326.5921020507813	553.3787841796876	-778.5764770507815	-320.7286682128907	493.5177001953126	-772.0880126953127	-291.6455383300782	470.0129699707032	-884.7020263671877	-288.5046081542969	354.8614196777344	-770.6992797851565	-366.9720764160157	287.9624938964844	-733.8784179687501	-321.7839965820313	278.6569824218751	-743.9201660156251	-313.6447143554688	226.9075164794922	-769.700378417969	-382.5868225097657	88.57884979248048	-719.0808715820314	-367.1510009765626	101.046127319336	-802.6357421875002	-442.747528076172	62.12496566772462	-760.4685668945314	-239.8947906494141	54.45264434814455	-800.873718261719	-231.1125183105469	54.27174758911134	-756.2906494140626	-251.9784851074219	32.72049713134766	-700.8585815429689	
3	0.01	-62.5093231201172	1480.036254882813	-985.2041015625002	-212.2377471923829	1524.338500976563	-1083.096313476563	-194.8027496337891	1532.4921875	-931.2532348632815	-335.1397705078126	1435.430541992188	-997.2656250000002	-411.9844360351564	1109.308471679688	-992.394958496094	-226.5513610839844	1322.206787109375	-995.6599121093752	-294.7362060546876	1361.001098632813	-1166.211669921875	-318.5748901367188	1205.2353515625	-1292.475341796875	-307.3681335449219	1160.708984375	-1272.17138671875	-330.6845397949219	1146.110107421875	-1326.302001953125	-345.5922241210938	1098.251220703125	-1355.200317382813	-426.6863708496095	1093.002807617188	-1321.185180664063	-314.6704406738282	938.518981933594	-1164.05908203125	-362.3919067382813	922.5317993164065	-1188.083862304688	-319.3272399902344	889.004577636719	-1222.640380859375	-289.7484741210938	1360.582153320313	-831.201599121094	-355.9915771484376	1228.411010742188	-693.3425292968751	-326.6161804199219	1187.580688476563	-691.8329467773439	-370.7712402343751	1170.774169921875	-654.0437011718751	-370.9400024414063	1101.809814453125	-630.6065673828126	-439.8920288085939	1090.311889648438	-685.3956298828126	-351.2773132324219	927.7900390625002	-797.8672485351565	-297.0170593261719	942.8925781250002	-811.1433715820315	-307.2371826171876	900.7408447265627	-754.1976318359376	-264.2399597167969	910.5059814453127	-1098.985107421875	-253.9505004882813	911.6865234375002	-888.8308715820315	-419.1702270507814	1000.865173339844	-987.775085449219	-430.0870666503907	973.4500122070315	-1016.361145019531	-426.4851989746095	971.2248535156252	-959.5264282226565	-355.1619567871094	768.6218261718752	-1161.40478515625	-332.3604431152344	686.4171752929689	-1160.923583984375	-283.7650756835938	684.1576538085939	-1149.813232421875	-366.3999328613282	637.4704589843751	-1147.076293945313	-374.8137512207032	475.7755737304689	-1124.477416992188	-347.0971069335938	466.3519592285157	-1008.76708984375	-342.4138183593751	330.3247680664063	-1056.052856445313	-360.6287841796876	277.4681701660157	-1125.21923828125	-333.3177490234376	280.7054748535157	-1087.028686523438	-346.1247253417969	202.7172546386719	-1056.340087890625	-394.7118530273439	77.86171722412111	-1113.179931640625	-371.4859008789063	88.97833251953126	-1031.548095703125	-449.4480285644532	42.31335067749024	-1069.698364257813	-237.7476501464844	53.60218429565431	-1050.98681640625	-232.5405426025391	53.03329467773439	-1089.5068359375	-251.2604675292969	42.88065338134766	-1140.70361328125	-340.8521118164063	685.7958984375001	-789.9718017578127	-302.4682006835938	632.1172485351564	-774.3394165039065	-268.0556030273438	633.9097900390626	-781.1583251953127	-326.7843933105469	553.3913574218751	-778.9697875976565	-320.9354553222657	493.4466247558595	-772.5471801757815	-292.0242309570313	469.9648437500001	-885.2106933593752	-288.6814575195313	354.8597412109376	-771.1702270507815	-367.0034790039063	287.9106140136719	-734.1209106445314	-321.8334350585938	278.6264648437501	-744.2344360351564	-313.7887268066407	226.8908386230469	-770.0770263671877	-382.5474853515626	88.67691802978517	-719.2001342773439	-367.3724365234376	101.0244750976563	-802.7791137695315	-442.8236694335939	62.06339263916017	-760.4335937500001	-239.9659576416016	54.40966796875001	-800.9346313476565	-231.1578521728516	54.31713485717775	-756.4046630859376	-251.955551147461	32.83152008056641	-700.9728393554689	
4	0.015	-62.71120452880861	1480.069091796875	-985.440368652344	-212.4886474609376	1524.419311523438	-1083.375	-195.0088195800782	1532.498657226563	-931.563659667969	-335.2939758300782	1435.407836914063	-997.638854980469	-412.0716857910157	1109.243774414063	-992.9976196289065	-226.7345581054688	1322.25244140625	-995.960632324219	-294.6912536621094	1361.004516601563	-1166.58447265625	-318.5252075195313	1205.2666015625	-1292.902954101563	-307.1350402832032	1160.783569335938	-1272.636474609375	-330.4797668457032	1146.124145507813	-1326.695922851563	-345.4028625488282	1098.26416015625	-1355.61572265625	-426.4961242675782	1093.314331054688	-1321.277954101563	-314.4096374511719	938.5419921875002	-1164.503662109375	-362.1047363281251	922.495300292969	-1188.568115234375	-319.0677185058594	889.0078125000002	-1223.019897460938	-290.1010742187501	1360.544311523438	-831.6026000976565	-356.4886779785157	1228.36474609375	-693.8516235351564	-327.0720214843751	1187.540161132813	-692.2192382812501	-371.3077087402344	1170.705322265625	-654.5357666015626	-371.5132446289063	1101.725952148438	-631.1022949218751	-440.3629150390626	1090.258911132813	-685.9008178710939	-351.3278808593751	927.7058105468752	-798.3431396484377	-297.2723083496094	942.8500976562502	-811.5308837890627	-307.5658569335938	900.7041625976565	-754.6076049804689	-264.1076354980469	910.4772949218752	-1099.346435546875	-254.2534332275391	911.590026855469	-889.2338867187502	-419.2298889160157	1000.85595703125	-988.208923339844	-430.1101684570314	973.406921386719	-1016.886169433594	-426.5329895019532	971.1631469726565	-960.1516723632815	-355.0959167480469	768.6160888671877	-1161.82275390625	-332.3237609863282	686.3510742187501	-1161.242797851563	-283.6929626464844	684.1134033203126	-1150.126708984375	-366.3036804199219	637.4170532226564	-1147.400024414063	-374.8781738281251	475.7160034179689	-1124.712158203125	-347.1315612792969	466.3511047363282	-1009.055725097656	-342.4725036621094	330.3489685058594	-1056.25537109375	-360.7196350097657	277.4247741699219	-1125.343017578125	-333.3489379882813	280.7002563476563	-1087.203002929688	-346.1678771972657	202.7363891601563	-1056.4697265625	-394.7368774414064	77.86238861083986	-1113.21533203125	-371.4884338378907	88.97760009765626	-1031.5849609375	-449.4631652832032	42.29924011230469	-1069.689453125	-237.7297058105469	53.63490295410158	-1051.015258789063	-232.5752868652344	53.07054138183595	-1089.471801757813	-250.1888427734376	42.44090652465821	-1140.43994140625	-341.1385803222657	685.9325561523439	-789.9797363281252	-302.6503906250001	632.1399536132814	-774.6970825195315	-268.2139587402344	633.8568115234376	-781.5230102539065	-327.0428466796876	553.3424072265626	-779.3701782226565	-321.2133178710938	493.4206848144532	-772.9985961914065	-293.3913879394532	470.1739196777345	-886.0278320312502	-288.8468627929688	354.8291320800782	-771.6882934570315	-367.1560363769532	287.9339294433594	-734.3607177734376	-321.9352111816407	278.6406860351563	-744.5695190429689	-313.9154968261719	226.8796081542969	-770.4143676757815	-382.5756835937501	88.71605682373048	-719.4481201171876	-367.4716491699219	100.8908081054688	-803.0059814453127	-442.9199829101564	61.99816894531251	-760.4658813476564	-239.9777221679688	54.37767791748048	-800.9871826171877	-231.1381072998047	54.36948776245119	-756.4893188476564	-252.010482788086	32.92671203613282	-701.0278930664064	
